<svg width="213" height="202" viewBox="0 0 213 202" fill="none" xmlns="http://www.w3.org/2000/svg">
<path fill-rule="evenodd" clip-rule="evenodd" d="M113.18 101C113.18 94.2646 107.719 88.8044 100.984 88.8044C94.2485 88.8044 88.7883 94.2646 88.7883 101C88.7883 107.736 94.2485 113.196 100.984 113.196C107.719 113.196 113.18 107.736 113.18 101ZM100.984 1C45.7554 1 0.983887 45.7715 0.983887 101C0.983887 156.229 45.7554 201 100.984 201C156.212 201 200.984 156.229 200.984 101C200.984 45.7715 156.212 1 100.984 1Z" fill="#BEEBFC"/>
<path d="M34.8633 101C34.8633 64.4829 64.4663 34.8799 100.984 34.8799C137.501 34.8799 167.104 64.4829 167.104 101C167.104 137.517 137.501 167.12 100.984 167.12C64.4663 167.12 34.8633 137.517 34.8633 101Z" fill="white"/>
<g clip-path="url(#clip0_144_684)">
<path d="M46.3052 166.934L70.0436 160.333L101.034 118.728L117.194 122.69L154.111 85.5215L170.202 90.4362L190.669 55.0312V199.073H46.3052V166.934Z" fill="#BBECF3"/>
<path d="M180.768 72.1589V199.073H190.67V55.0312L180.768 72.1589Z" fill="#A9DFE7"/>
<path d="M101.034 126.944C105.572 126.944 109.251 123.266 109.251 118.728C109.251 114.19 105.572 110.511 101.034 110.511C96.4962 110.511 92.8174 114.19 92.8174 118.728C92.8174 123.266 96.4962 126.944 101.034 126.944Z" fill="#BBECF3"/>
<path d="M109.25 118.727C109.25 123.264 105.574 126.944 101.033 126.944C99.7353 126.944 98.503 126.642 97.4121 126.1C100.539 125.108 102.804 122.181 102.804 118.727C102.804 115.274 100.539 112.347 97.4121 111.354C98.5027 110.813 99.7353 110.511 101.033 110.511C105.574 110.511 109.25 114.19 109.25 118.727Z" fill="#A9DFE7"/>
<path d="M154.111 93.7373C158.649 93.7373 162.328 90.0585 162.328 85.5205C162.328 80.9825 158.649 77.3037 154.111 77.3037C149.573 77.3037 145.894 80.9825 145.894 85.5205C145.894 90.0585 149.573 93.7373 154.111 93.7373Z" fill="#BBECF3"/>
<path d="M162.326 85.5202C162.326 90.0574 158.651 93.7367 154.11 93.7367C152.812 93.7367 151.58 93.4349 150.489 92.8933C153.615 91.9007 155.88 88.9739 155.88 85.5202C155.88 82.0665 153.615 79.1397 150.489 78.1472C151.579 77.6056 152.812 77.3037 154.11 77.3037C158.651 77.3037 162.326 80.983 162.326 85.5202Z" fill="#A9DFE7"/>
<path d="M70.044 168.55C74.582 168.55 78.2608 164.871 78.2608 160.333C78.2608 155.795 74.582 152.116 70.044 152.116C65.5059 152.116 61.8271 155.795 61.8271 160.333C61.8271 164.871 65.5059 168.55 70.044 168.55Z" fill="#BBECF3"/>
<path d="M78.2596 160.333C78.2596 164.87 74.584 168.549 70.0431 168.549C68.745 168.549 67.5128 168.247 66.4219 167.706C69.5485 166.713 71.8136 163.786 71.8136 160.333C71.8136 156.879 69.5485 153.952 66.4219 152.96C67.5124 152.418 68.745 152.116 70.0431 152.116C74.5837 152.116 78.2596 155.796 78.2596 160.333Z" fill="#A9DFE7"/>
<path d="M84.0603 94.7241C94.8521 94.7241 103.601 85.9756 103.601 75.1838C103.601 64.392 94.8521 55.6436 84.0603 55.6436C73.2685 55.6436 64.52 64.392 64.52 75.1838C64.52 85.9756 73.2685 94.7241 84.0603 94.7241Z" fill="#9FF4AA"/>
<path d="M103.6 75.1844C103.6 85.9761 94.8512 94.7253 84.0595 94.7253C82.0169 94.7253 80.046 94.413 78.1953 93.8309C88.0925 93.3624 95.9703 85.1954 95.9703 75.1844C95.9703 65.1766 88.0959 57.0095 78.2051 56.5346C80.0559 55.9558 82.0203 55.6436 84.0598 55.6436C94.8512 55.6436 103.6 64.3927 103.6 75.1844Z" fill="#84E190"/>
<path d="M199.072 196.766H192.975V193.564C192.975 192.291 191.943 191.259 190.67 191.259C189.396 191.259 188.364 192.291 188.364 193.564V196.766H171.914V193.564C171.914 192.291 170.882 191.259 169.609 191.259C168.336 191.259 167.304 192.291 167.304 193.564V196.766H150.854V193.564C150.854 192.291 149.822 191.259 148.549 191.259C147.275 191.259 146.243 192.291 146.243 193.564V196.766H129.793V193.564C129.793 192.291 128.761 191.259 127.488 191.259C126.215 191.259 125.183 192.291 125.183 193.564V196.766H48.6107V168.684L60.773 165.304C62.1989 167.952 64.7267 169.921 67.7384 170.597V186.343C67.7384 187.616 68.7706 188.649 70.0438 188.649C71.3169 188.649 72.3491 187.616 72.3491 186.343V170.597C77.0455 169.542 80.5659 165.342 80.5659 160.332C80.5659 157.718 79.6053 155.325 78.0214 153.483L86.2352 142.456C86.9959 141.435 86.7847 139.991 85.7636 139.23C84.7425 138.47 83.2982 138.681 82.5377 139.702L74.3268 150.725C73.0173 150.139 71.569 149.81 70.0441 149.81C64.2423 149.81 59.5222 154.53 59.5222 160.332C59.5222 160.51 59.5268 160.687 59.5358 160.862L48.6107 163.899V121.774H51.8126C53.0858 121.774 54.1179 120.742 54.1179 119.469C54.1179 118.196 53.0858 117.163 51.8126 117.163H48.6107V100.714H51.8126C53.0858 100.714 54.1179 99.6814 54.1179 98.4082C54.1179 97.1351 53.0858 96.1029 51.8126 96.1029H48.6107V79.653H51.8126C53.0858 79.653 54.1179 78.6208 54.1179 77.3477C54.1179 76.0745 53.0858 75.0423 51.8126 75.0423H48.6107V58.5927H51.8126C53.0858 58.5927 54.1179 57.5606 54.1179 56.2874C54.1179 55.0142 53.0858 53.9821 51.8126 53.9821H48.6107V46.3053C48.6107 45.0322 47.5785 44 46.3053 44C45.0322 44 44 45.0322 44 46.3053V199.072C44 200.345 45.0322 201.377 46.3053 201.377H199.072C200.345 201.377 201.377 200.345 201.377 199.072C201.377 197.799 200.345 196.766 199.072 196.766ZM70.0438 154.421C73.3032 154.421 75.9552 157.072 75.9552 160.332C75.9552 163.592 73.3035 166.243 70.0438 166.243C66.784 166.243 64.1326 163.592 64.1326 160.332C64.1326 157.073 66.7843 154.421 70.0438 154.421Z" fill="#00378C"/>
<path d="M138.131 103.914C138.724 103.914 139.316 103.687 139.767 103.233L148.514 94.4244C149.512 95.0533 150.621 95.519 151.805 95.7849V161.659C151.805 162.932 152.837 163.964 154.111 163.964C155.384 163.964 156.416 162.932 156.416 161.659V95.7849C159.339 95.1286 161.805 93.2536 163.251 90.7224L167.896 92.1412V175.577C167.896 176.85 168.928 177.883 170.201 177.883C171.475 177.883 172.507 176.85 172.507 175.577V91.0555L192.664 56.1821C193.301 55.0798 192.924 53.6699 191.821 53.0327C190.719 52.3952 189.309 52.7723 188.672 53.8749L169.124 87.6953L164.6 86.3133C164.619 86.0511 164.632 85.7874 164.632 85.5203C164.632 79.7186 159.912 74.9985 154.111 74.9985C148.309 74.9985 143.588 79.7186 143.588 85.5203C143.588 87.6006 144.198 89.5402 145.244 91.1745L136.495 99.9836C135.598 100.887 135.603 102.347 136.506 103.244C136.956 103.691 137.544 103.914 138.131 103.914ZM154.111 79.6091C157.37 79.6091 160.022 82.2609 160.022 85.5203C160.022 88.7797 157.37 91.4318 154.111 91.4318C150.851 91.4318 148.199 88.78 148.199 85.5203C148.199 82.2606 150.851 79.6091 154.111 79.6091Z" fill="#00378C"/>
<path d="M90.5123 118.727C90.5123 121.341 91.4728 123.734 93.057 125.577L88.6787 131.455C87.9183 132.476 88.1295 133.921 89.1506 134.681C89.564 134.989 90.0472 135.138 90.5258 135.138C91.2294 135.138 91.924 134.817 92.3765 134.209L96.7517 128.334C97.3809 128.616 98.0421 128.837 98.7287 128.991V172.976C98.7287 174.249 99.7609 175.281 101.034 175.281C102.307 175.281 103.339 174.249 103.339 172.976V128.992C106.459 128.291 109.058 126.203 110.452 123.411L114.888 124.498V178.389C114.888 179.662 115.921 180.694 117.194 180.694C118.467 180.694 119.499 179.662 119.499 178.389V123.638L132.568 110.482C133.465 109.578 133.46 108.118 132.557 107.222C131.654 106.324 130.194 106.329 129.297 107.232L116.476 120.14L111.551 118.933C111.553 118.864 111.557 118.796 111.557 118.727C111.557 112.926 106.836 108.205 101.034 108.205C95.2323 108.205 90.5123 112.925 90.5123 118.727ZM106.946 118.727C106.946 121.986 104.294 124.638 101.034 124.638C97.7743 124.638 95.1229 121.986 95.1229 118.727C95.1229 115.468 97.7746 112.815 101.034 112.815C104.294 112.815 106.946 115.468 106.946 118.727Z" fill="#00378C"/>
<path d="M84.0607 88.7113C85.3338 88.7113 86.366 87.6792 86.366 86.406V85.9093C89.4425 85.408 91.8011 82.7393 91.8011 79.5232C91.8011 75.9509 88.8948 73.0449 85.3228 73.0449H82.7989C81.7689 73.0449 80.9313 72.207 80.9313 71.1773C80.9313 70.1473 81.7692 69.3097 82.7989 69.3097H85.3228C85.9443 69.3097 86.5237 69.618 86.8726 70.1347C87.5854 71.1899 89.0181 71.4675 90.0733 70.7547C91.1282 70.0422 91.4058 68.6092 90.6933 67.5539C89.6835 66.0592 88.1134 65.0707 86.366 64.7863V63.9626C86.366 62.6894 85.3338 61.6572 84.0607 61.6572C82.7875 61.6572 81.7554 62.6894 81.7554 63.9626V64.7912C78.6785 65.2926 76.3203 67.9612 76.3203 71.1776C76.3203 74.7497 79.2266 77.6559 82.7986 77.6559H85.3225C86.3525 77.6559 87.1901 78.4938 87.1901 79.5235C87.1901 80.5532 86.3522 81.3911 85.3225 81.3911H82.7986C82.0458 81.3911 81.3702 80.943 81.0767 80.2499C80.5806 79.0775 79.2272 78.5285 78.0551 79.0247C76.8825 79.5208 76.3341 80.8735 76.8299 82.0462C77.7087 84.1234 79.5788 85.5629 81.755 85.9157V86.4069C81.7554 87.6795 82.7872 88.7113 84.0607 88.7113Z" fill="#00378C"/>
<path d="M84.0604 97.0291C93.9558 97.0291 102.638 90.355 105.174 80.7993C105.5 79.5688 104.768 78.3064 103.537 77.9797C102.306 77.6533 101.044 78.3861 100.718 79.6165C98.7171 87.154 91.8675 92.4184 84.0604 92.4184C74.5573 92.4184 66.8255 84.687 66.8255 75.1835C66.8255 65.68 74.557 57.9485 84.0604 57.9485C91.7824 57.9485 98.6117 63.1426 100.669 70.5796C101.008 71.8066 102.279 72.5259 103.505 72.1869C104.732 71.8475 105.452 70.5778 105.112 69.3504C102.505 59.9225 93.8479 53.3379 84.0604 53.3379C72.0149 53.3379 62.2148 63.1377 62.2148 75.1835C62.2148 87.2293 72.0149 97.0291 84.0604 97.0291Z" fill="#00378C"/>
<path d="M115.751 67.6432L117.618 65.7762L119.485 67.6432C119.935 68.0932 120.525 68.3185 121.115 68.3185C121.705 68.3185 122.295 68.0935 122.745 67.6432C123.645 66.7429 123.645 65.2832 122.745 64.3832L119.248 60.8862C118.347 59.9859 116.888 59.9859 115.988 60.8862L112.491 64.3832C111.59 65.2835 111.59 66.7432 112.491 67.6432C113.391 68.5435 114.85 68.5435 115.751 67.6432Z" fill="#00378C"/>
<path d="M115.751 78.5635L117.618 76.6965L119.485 78.5635C119.935 79.0135 120.525 79.2388 121.115 79.2388C121.705 79.2388 122.295 79.0138 122.745 78.5635C123.645 77.6632 123.645 76.2034 122.745 75.3034L119.248 71.8061C118.347 70.9058 116.888 70.9058 115.988 71.8061L112.491 75.3031C111.59 76.2034 111.59 77.6632 112.491 78.5632C113.391 79.4638 114.85 79.4638 115.751 78.5635Z" fill="#00378C"/>
<path d="M119.248 82.725C118.347 81.8247 116.888 81.8247 115.988 82.725L112.491 86.2218C111.59 87.1221 111.59 88.5815 112.491 89.4818C113.391 90.3824 114.851 90.3821 115.751 89.4818L117.618 87.6151L119.485 89.4818C119.935 89.9321 120.525 90.1571 121.115 90.1571C121.705 90.1571 122.295 89.9321 122.745 89.4818C123.645 88.5815 123.645 87.1218 122.745 86.2218L119.248 82.725Z" fill="#00378C"/>
</g>
<defs>
<clipPath id="clip0_144_684">
<rect width="157.377" height="157.377" fill="white" transform="translate(44 44)"/>
</clipPath>
</defs>
</svg>
