<svg width="1920" height="705" viewBox="0 0 1920 705" fill="none" xmlns="http://www.w3.org/2000/svg">
<g clip-path="url(#clip0_72_883)">
<path opacity="0.3" fill-rule="evenodd" clip-rule="evenodd" d="M421 383C209.475 383 38 211.525 38 0L198 6.99382e-06C198 123.16 297.841 223 421 223C544.159 223 644 123.16 644 6.99382e-06L804 0C804 211.525 632.525 383 421 383Z" fill="url(#paint0_linear_72_883)"/>
<path opacity="0.3" fill-rule="evenodd" clip-rule="evenodd" d="M1498 322C1286.47 322 1115 493.475 1115 705L1275 705C1275 581.84 1374.84 482 1498 482C1621.16 482 1721 581.84 1721 705L1881 705C1881 493.475 1709.53 322 1498 322Z" fill="url(#paint1_linear_72_883)"/>
</g>
<defs>
<linearGradient id="paint0_linear_72_883" x1="174.19" y1="1.04326e-05" x2="724" y2="-1.36004e-05" gradientUnits="userSpaceOnUse">
<stop stop-color="white"/>
<stop offset="1" stop-color="#DEF6FF"/>
</linearGradient>
<linearGradient id="paint1_linear_72_883" x1="1251.19" y1="705" x2="1801" y2="705" gradientUnits="userSpaceOnUse">
<stop stop-color="white"/>
<stop offset="1" stop-color="#DEF6FF"/>
</linearGradient>
<clipPath id="clip0_72_883">
<rect width="1920" height="705" fill="white"/>
</clipPath>
</defs>
</svg>
