<svg width="213" height="201" viewBox="0 0 213 201" fill="none" xmlns="http://www.w3.org/2000/svg">
<path fill-rule="evenodd" clip-rule="evenodd" d="M112.736 100.744C112.736 94.0087 107.276 88.5485 100.541 88.5485C93.8051 88.5485 88.3449 94.0087 88.3449 100.744C88.3449 107.48 93.8051 112.94 100.541 112.94C107.276 112.94 112.736 107.48 112.736 100.744ZM100.541 0.744141C45.3121 0.744141 0.540527 45.5157 0.540527 100.744C0.540527 155.973 45.3121 200.744 100.541 200.744C155.769 200.744 200.541 155.973 200.541 100.744C200.541 45.5157 155.769 0.744141 100.541 0.744141Z" fill="#BEEBFC"/>
<path d="M34.4199 100.744C34.4199 64.2271 64.023 34.624 100.54 34.624C137.057 34.624 166.66 64.2271 166.66 100.744C166.66 137.261 137.057 166.865 100.54 166.865C64.023 166.865 34.4199 137.261 34.4199 100.744Z" fill="white"/>
<g clip-path="url(#clip0_144_681)">
<path d="M194.461 185.601H50.9158C48.3695 185.601 46.3052 183.536 46.3052 180.99V63.1214C46.3052 60.5751 48.3695 58.5107 50.9158 58.5107H194.461C197.007 58.5107 199.072 60.5751 199.072 63.1214V180.99C199.072 183.537 197.007 185.601 194.461 185.601Z" fill="#F6F6F6"/>
<path d="M199.072 63.1224V180.989C199.072 183.537 197.006 185.6 194.461 185.6H182.627C185.172 185.6 187.238 183.537 187.238 180.989V63.1224C187.238 60.5742 185.172 58.5117 182.627 58.5117H194.461C197.006 58.5117 199.072 60.5742 199.072 63.1224Z" fill="#EAEFF2"/>
<path d="M199.072 63.1224V79.9789H46.3052V63.1224C46.3052 60.5742 48.3708 58.5117 50.9158 58.5117H194.461C197.006 58.5117 199.072 60.5742 199.072 63.1224Z" fill="#9FF4AA"/>
<path d="M199.072 63.1224V79.9789H187.238V63.1224C187.238 60.5742 185.172 58.5117 182.627 58.5117H194.461C197.006 58.5117 199.072 60.5742 199.072 63.1224Z" fill="#84E190"/>
<path d="M112.63 150.419L128.755 141.012L143.137 146.73L154.765 133.834L160.99 139.018L179.453 117.098V170.56H112.63V150.419Z" fill="#BBECF3"/>
<path d="M170.514 127.711V170.56H179.454V117.098L170.514 127.711Z" fill="#A9DFE7"/>
<path d="M194.461 56.2061H81.1261C79.8526 56.2061 78.8207 57.2382 78.8207 58.5114C78.8207 59.7845 79.8526 60.8167 81.1261 60.8167H194.461C195.732 60.8167 196.766 61.8507 196.766 63.122V77.6757H48.6102V63.122C48.6102 61.8507 49.6442 60.8167 50.9155 60.8167H70.8833C72.1568 60.8167 73.1887 59.7845 73.1887 58.5114C73.1887 57.2382 72.1568 56.2061 70.8833 56.2061H50.9155C47.1022 56.2061 43.9995 59.3084 43.9995 63.122V180.991C43.9995 184.805 47.1022 187.907 50.9155 187.907H194.461C198.274 187.907 201.377 184.805 201.377 180.991V125.014C201.377 123.741 200.345 122.709 199.071 122.709C197.798 122.709 196.766 123.741 196.766 125.014V180.991C196.766 182.262 195.732 183.296 194.461 183.296H50.9155C49.6442 183.296 48.6102 182.262 48.6102 180.991V82.2864H196.766V114.771C196.766 116.044 197.798 117.076 199.071 117.076C200.345 117.076 201.377 116.044 201.377 114.771V63.122C201.377 59.3084 198.274 56.2061 194.461 56.2061Z" fill="#00378C"/>
<path d="M55.8076 69.0856V69.1176C55.8076 70.3907 56.8395 71.4229 58.1129 71.4229C59.3864 71.4229 60.4183 70.3907 60.4183 69.1176V69.0856C60.4183 67.8124 59.3864 66.7803 58.1129 66.7803C56.8395 66.7803 55.8076 67.8124 55.8076 69.0856Z" fill="#00378C"/>
<path d="M64.0015 69.0856V69.1176C64.0015 70.3907 65.0333 71.4229 66.3068 71.4229C67.5803 71.4229 68.6121 70.3907 68.6121 69.1176V69.0856C68.6121 67.8124 67.5803 66.7803 66.3068 66.7803C65.0333 66.7803 64.0015 67.8124 64.0015 69.0856Z" fill="#00378C"/>
<path d="M72.1953 69.0856V69.1176C72.1953 70.3907 73.2272 71.4229 74.5006 71.4229C75.7741 71.4229 76.806 70.3907 76.806 69.1176V69.0856C76.806 67.8124 75.7741 66.7803 74.5006 66.7803C73.2272 66.7803 72.1953 67.8124 72.1953 69.0856Z" fill="#00378C"/>
<path d="M187.263 71.4066C188.537 71.4066 189.568 70.3744 189.568 69.1012C189.568 67.8281 188.537 66.7959 187.263 66.7959H126.907C125.634 66.7959 124.602 67.8281 124.602 69.1012C124.602 70.3744 125.634 71.4066 126.907 71.4066H187.263Z" fill="#00378C"/>
<path d="M112.63 120.5C111.356 120.5 110.324 121.532 110.324 122.805V170.561C110.324 171.834 111.356 172.866 112.63 172.866H179.45H179.453C179.453 172.866 179.455 172.866 179.456 172.866H183.432C184.706 172.866 185.738 171.834 185.738 170.561C185.738 169.288 184.706 168.256 183.432 168.256H181.759V152.438C181.759 151.164 180.727 150.132 179.453 150.132C178.18 150.132 177.148 151.164 177.148 152.438V168.256H169.851V165.847C169.851 164.574 168.82 163.542 167.546 163.542C166.273 163.542 165.241 164.574 165.241 165.847V168.256H155.692V165.847C155.692 164.574 154.66 163.542 153.386 163.542C152.113 163.542 151.081 164.574 151.081 165.847V168.256H141.532V165.847C141.532 164.574 140.5 163.542 139.227 163.542C137.953 163.542 136.921 164.574 136.921 165.847V168.256H127.372V165.847C127.372 164.574 126.34 163.542 125.067 163.542C123.793 163.542 122.761 164.574 122.761 165.847V168.256H114.936V151.744L128.947 143.57L142.286 148.873C143.182 149.229 144.205 148.99 144.85 148.274L154.993 137.024L159.516 140.79C160.49 141.601 161.937 141.473 162.754 140.503L177.148 123.413V142.194C177.148 143.467 178.18 144.5 179.454 144.5C180.727 144.5 181.759 143.467 181.759 142.194V117.098C181.759 116.13 181.154 115.265 180.244 114.933C179.335 114.601 178.314 114.873 177.69 115.613L160.704 135.78L156.24 132.063C155.288 131.271 153.881 131.372 153.053 132.291L142.499 143.996L129.607 138.871C128.948 138.609 128.206 138.665 127.593 139.021L114.935 146.405V122.805C114.935 121.531 113.903 120.5 112.63 120.5Z" fill="#00378C"/>
<path d="M131.06 131.111V129.254C131.06 127.98 130.028 126.948 128.755 126.948C127.481 126.948 126.449 127.98 126.449 129.254V131.111C126.449 132.385 127.481 133.417 128.755 133.417C130.028 133.417 131.06 132.385 131.06 131.111Z" fill="#00378C"/>
<path d="M154.723 126.039C155.996 126.039 157.028 125.007 157.028 123.733V121.876C157.028 120.602 155.996 119.57 154.723 119.57C153.449 119.57 152.417 120.602 152.417 121.876V123.733C152.417 125.007 153.449 126.039 154.723 126.039Z" fill="#00378C"/>
<path d="M179.453 110.18C180.726 110.18 181.758 109.148 181.758 107.875V106.017C181.758 104.744 180.726 103.712 179.453 103.712C178.179 103.712 177.147 104.744 177.147 106.017V107.875C177.147 109.148 178.179 110.18 179.453 110.18Z" fill="#00378C"/>
<path d="M63.0397 172.867H99.5533C100.827 172.867 101.859 171.834 101.859 170.561C101.859 169.288 100.827 168.256 99.5533 168.256H63.0397C61.7662 168.256 60.7344 169.288 60.7344 170.561C60.7344 171.834 61.7665 172.867 63.0397 172.867Z" fill="#00378C"/>
<path d="M63.0397 158.815C61.7662 158.815 60.7344 159.848 60.7344 161.121C60.7344 162.394 61.7662 163.426 63.0397 163.426H68.3555C69.6289 163.426 70.6608 162.394 70.6608 161.121C70.6608 159.848 69.6289 158.815 68.3555 158.815H63.0397Z" fill="#00378C"/>
<path d="M99.5535 158.815H78.3239C77.0504 158.815 76.0186 159.848 76.0186 161.121C76.0186 162.394 77.0504 163.426 78.3239 163.426H99.5535C100.827 163.426 101.859 162.394 101.859 161.121C101.859 159.848 100.827 158.815 99.5535 158.815Z" fill="#00378C"/>
<path d="M99.5537 149.376H94.2106C92.9371 149.376 91.9053 150.408 91.9053 151.681C91.9053 152.954 92.9371 153.987 94.2106 153.987H99.5537C100.827 153.987 101.859 152.954 101.859 151.681C101.859 150.408 100.827 149.376 99.5537 149.376Z" fill="#00378C"/>
<path d="M60.7344 151.681C60.7344 152.954 61.7662 153.987 63.0397 153.987H84.3505C85.6239 153.987 86.6558 152.954 86.6558 151.681C86.6558 150.408 85.6239 149.376 84.3505 149.376H63.0397C61.7665 149.376 60.7344 150.408 60.7344 151.681Z" fill="#00378C"/>
<path d="M80.3874 107.069H92.238C93.5114 107.069 94.5433 106.036 94.5433 104.763C94.5433 103.49 93.5114 102.458 92.238 102.458H80.3874C79.1139 102.458 78.082 103.49 78.082 104.763C78.082 106.036 79.1139 107.069 80.3874 107.069Z" fill="#00378C"/>
<path d="M108.068 95.2897C108.068 94.0165 107.036 92.9844 105.763 92.9844H80.3874C79.1139 92.9844 78.082 94.0165 78.082 95.2897C78.082 96.5629 79.1139 97.595 80.3874 97.595H105.763C107.036 97.595 108.068 96.5632 108.068 95.2897Z" fill="#00378C"/>
<path d="M80.3874 113.826H92.238C93.5114 113.826 94.5433 112.793 94.5433 111.52C94.5433 110.247 93.5114 109.215 92.238 109.215H80.3874C79.1139 109.215 78.082 110.247 78.082 111.52C78.082 112.793 79.1139 113.826 80.3874 113.826Z" fill="#00378C"/>
<path d="M64.907 140.321C65.3395 140.754 65.9256 140.997 66.5373 140.997C67.149 140.997 67.7352 140.753 68.1677 140.321L71.6644 136.824C72.5647 135.924 72.5647 134.464 71.6641 133.564C70.7641 132.664 69.3043 132.664 68.404 133.564L66.5376 135.431L64.6709 133.564C63.7703 132.664 62.3109 132.664 61.4106 133.564C60.5103 134.464 60.5103 135.924 61.4106 136.824L64.907 140.321Z" fill="#00378C"/>
<path d="M66.8083 108.464H64.5866C64.0351 108.464 63.54 108.136 63.3251 107.628C62.8293 106.455 61.4747 105.906 60.3039 106.403C59.1312 106.899 58.5826 108.252 59.079 109.424C59.8585 111.267 61.4839 112.565 63.3924 112.952V113.155C63.3924 114.428 64.4243 115.46 65.6977 115.46C66.9712 115.46 68.0031 114.428 68.0031 113.155V112.955C70.7292 112.4 72.7868 109.984 72.7868 107.096C72.7868 103.8 70.1046 101.118 66.8083 101.118H64.5866C63.8323 101.118 63.2187 100.504 63.2187 99.7501C63.2187 98.9958 63.8323 98.3823 64.5866 98.3823H66.8083C67.2635 98.3823 67.688 98.6082 67.9438 98.9869C68.6562 100.042 70.0889 100.319 71.1445 99.6066C72.1997 98.8938 72.4769 97.4608 71.7644 96.4055C70.8777 95.0927 69.5221 94.2029 68.0031 93.8936V93.3991C68.0031 92.1259 66.9712 91.0938 65.6977 91.0938C64.4243 91.0938 63.3924 92.1259 63.3924 93.3991V93.8918C60.6663 94.4469 58.6084 96.8623 58.6084 99.7501C58.6084 103.047 61.2906 105.729 64.5869 105.729H66.8086C67.5629 105.729 68.1764 106.342 68.1764 107.096C68.1764 107.85 67.5626 108.464 66.8083 108.464Z" fill="#00378C"/>
</g>
<defs>
<clipPath id="clip0_144_681">
<rect width="157.377" height="157.377" fill="white" transform="translate(44 43.3672)"/>
</clipPath>
</defs>
</svg>
