<svg width="1920" height="800" viewBox="0 0 1920 800" fill="none" xmlns="http://www.w3.org/2000/svg">
<rect x="1649" y="268" width="42" height="42" rx="21" fill="#EAEFF2"/>
<rect x="1649" y="416" width="42" height="42" rx="21" fill="#EAEFF2"/>
<rect x="1649" y="490" width="42" height="42" rx="21" fill="#EAEFF2"/>
<rect x="1723" y="194" width="42" height="42" rx="21" fill="#EAEFF2"/>
<rect x="1723" y="342" width="42" height="42" rx="21" fill="#EAEFF2"/>
<rect x="1723" y="416" width="42" height="42" rx="21" fill="#EAEFF2"/>
<rect x="1797" y="194" width="42" height="42" rx="21" fill="#EAEFF2"/>
<rect x="1797" y="268" width="42" height="42" rx="21" fill="#EAEFF2"/>
<rect x="1797" y="342" width="42" height="42" rx="21" fill="#EAEFF2"/>
<rect x="1797" y="416" width="42" height="42" rx="21" fill="#EAEFF2"/>
<rect x="1797" y="490" width="42" height="42" rx="21" fill="#EAEFF2"/>
<rect x="1797" y="564" width="42" height="42" rx="21" fill="#EAEFF2"/>
<rect width="42" height="42" rx="21" transform="matrix(-1 0 0 1 197 268)" fill="#EAEFF2"/>
<rect width="42" height="42" rx="21" transform="matrix(-1 0 0 1 197 416)" fill="#EAEFF2"/>
<rect width="42" height="42" rx="21" transform="matrix(-1 0 0 1 197 490)" fill="#EAEFF2"/>
<rect width="42" height="42" rx="21" transform="matrix(-1 0 0 1 123 194)" fill="#EAEFF2"/>
<rect width="42" height="42" rx="21" transform="matrix(-1 0 0 1 123 342)" fill="#EAEFF2"/>
<rect width="42" height="42" rx="21" transform="matrix(-1 0 0 1 123 416)" fill="#EAEFF2"/>
</svg>
