<svg width="1920" height="800" viewBox="0 0 1920 800" fill="none" xmlns="http://www.w3.org/2000/svg">
<rect x="68" y="194" width="42" height="42" rx="21" fill="#EAEFF2"/>
<rect x="68" y="268" width="42" height="42" rx="21" fill="#EAEFF2"/>
<rect x="68" y="342" width="42" height="42" rx="21" fill="#EAEFF2"/>
<rect x="68" y="416" width="42" height="42" rx="21" fill="#EAEFF2"/>
<rect x="68" y="490" width="42" height="42" rx="21" fill="#EAEFF2"/>
<rect x="68" y="564" width="42" height="42" rx="21" fill="#EAEFF2"/>
<rect x="142" y="194" width="42" height="42" rx="21" fill="#EAEFF2"/>
<rect x="142" y="268" width="42" height="42" rx="21" fill="#EAEFF2"/>
<rect x="142" y="342" width="42" height="42" rx="21" fill="#EAEFF2"/>
<rect x="142" y="416" width="42" height="42" rx="21" fill="#EAEFF2"/>
<rect x="142" y="490" width="42" height="42" rx="21" fill="#EAEFF2"/>
<rect x="142" y="564" width="42" height="42" rx="21" fill="#EAEFF2"/>
<rect x="216" y="194" width="42" height="42" rx="21" fill="#EAEFF2"/>
<rect x="216" y="268" width="42" height="42" rx="21" fill="#EAEFF2"/>
<rect x="216" y="342" width="42" height="42" rx="21" fill="#BEEBFC"/>
<rect x="216" y="416" width="42" height="42" rx="21" fill="#EAEFF2"/>
<rect x="216" y="490" width="42" height="42" rx="21" fill="#EAEFF2"/>
<rect x="216" y="564" width="42" height="42" rx="21" fill="#EAEFF2"/>
<rect x="290" y="194" width="42" height="42" rx="21" fill="#EAEFF2"/>
<rect x="290" y="342" width="42" height="42" rx="21" fill="#EAEFF2"/>
<rect x="290" y="490" width="42" height="42" rx="21" fill="#EAEFF2"/>
<rect x="290" y="564" width="42" height="42" rx="21" fill="#EAEFF2"/>
<rect x="364" y="342" width="42" height="42" rx="21" fill="#EAEFF2"/>
<rect x="364" y="416" width="42" height="42" rx="21" fill="#EAEFF2"/>
<rect x="364" y="490" width="42" height="42" rx="21" fill="#EAEFF2"/>
<rect x="438" y="268" width="42" height="42" rx="21" fill="#EAEFF2"/>
<rect x="438" y="342" width="42" height="42" rx="21" fill="#EAEFF2"/>
<rect x="438" y="564" width="42" height="42" rx="21" fill="#EAEFF2"/>
<rect x="1662" y="194" width="42" height="42" rx="21" fill="#EAEFF2"/>
<rect x="1662" y="564" width="42" height="42" rx="21" fill="#EAEFF2"/>
<rect x="1736" y="342" width="42" height="42" rx="21" fill="#EAEFF2"/>
<rect x="1736" y="490" width="42" height="42" rx="21" fill="#EAEFF2"/>
<rect x="1810" y="268" width="42" height="42" rx="21" fill="#BEEBFC"/>
<rect x="1810" y="342" width="42" height="42" rx="21" fill="#EAEFF2"/>
<rect x="1810" y="564" width="42" height="42" rx="21" fill="#EAEFF2"/>
<rect x="579" y="194" width="42" height="42" rx="21" fill="#EAEFF2"/>
</svg>
