<svg width="20" height="20" viewBox="0 0 20 20" fill="none" xmlns="http://www.w3.org/2000/svg">
<path d="M7.86667 14.099C8.38596 13.7096 9.01756 13.499 9.66667 13.499H17C17.5523 13.499 18 13.0513 18 12.499V4.49902C18 3.94674 17.5523 3.49902 17 3.49902H3C2.44772 3.49902 2 3.94674 2 4.49902V12.499C2 13.0513 2.44772 13.499 3 13.499H5C5.55228 13.499 6 13.9467 6 14.499V15.499L7.86667 14.099ZM3 15.499C1.34315 15.499 0 14.1559 0 12.499V4.49902C0 2.84217 1.34315 1.49902 3 1.49902H17C18.6569 1.49902 20 2.84217 20 4.49902V12.499C20 14.1559 18.6569 15.499 17 15.499H9.66667C9.4503 15.499 9.23976 15.5692 9.06667 15.699L5.6 18.299C4.94076 18.7934 4 18.3231 4 17.499V15.499H3Z" fill="#00378C"/>
<path d="M6.00049 9.49927C6.55277 9.49927 7.00049 9.05155 7.00049 8.49927C7.00049 7.94698 6.55277 7.49927 6.00049 7.49927C5.4482 7.49927 5.00049 7.94698 5.00049 8.49927C5.00049 9.05155 5.4482 9.49927 6.00049 9.49927Z" fill="#00378C"/>
<path d="M10 9.49927C10.5523 9.49927 11 9.05155 11 8.49927C11 7.94698 10.5523 7.49927 10 7.49927C9.44772 7.49927 9 7.94698 9 8.49927C9 9.05155 9.44772 9.49927 10 9.49927Z" fill="#00378C"/>
<path d="M13.9995 9.49927C14.5518 9.49927 14.9995 9.05155 14.9995 8.49927C14.9995 7.94698 14.5518 7.49927 13.9995 7.49927C13.4472 7.49927 12.9995 7.94698 12.9995 8.49927C12.9995 9.05155 13.4472 9.49927 13.9995 9.49927Z" fill="#00378C"/>
</svg>
