<svg width="1920" height="800" viewBox="0 0 1920 800" fill="none" xmlns="http://www.w3.org/2000/svg">
<rect x="1634" y="268" width="42" height="42" rx="21" fill="white"/>
<rect x="1634" y="416" width="42" height="42" rx="21" fill="#D1F1FD"/>
<rect x="1634" y="490" width="42" height="42" rx="21" fill="#D1F1FD"/>
<rect x="1708" y="194" width="42" height="42" rx="21" fill="#D1F1FD"/>
<rect x="1708" y="342" width="42" height="42" rx="21" fill="#D1F1FD"/>
<rect x="1708" y="416" width="42" height="42" rx="21" fill="#D1F1FD"/>
<rect x="1782" y="194" width="42" height="42" rx="21" fill="#D1F1FD"/>
<rect x="1782" y="268" width="42" height="42" rx="21" fill="#D1F1FD"/>
<rect x="1782" y="342" width="42" height="42" rx="21" fill="#D1F1FD"/>
<rect x="1782" y="416" width="42" height="42" rx="21" fill="#D1F1FD"/>
<rect x="1782" y="490" width="42" height="42" rx="21" fill="white"/>
<rect x="1782" y="564" width="42" height="42" rx="21" fill="#D1F1FD"/>
<rect width="42" height="42" rx="21" transform="matrix(-1 0 0 1 182 268)" fill="#D1F1FD"/>
<rect width="42" height="42" rx="21" transform="matrix(-1 0 0 1 182 416)" fill="#D1F1FD"/>
<rect width="42" height="42" rx="21" transform="matrix(-1 0 0 1 182 490)" fill="#D1F1FD"/>
<rect width="42" height="42" rx="21" transform="matrix(-1 0 0 1 108 194)" fill="#D1F1FD"/>
<rect width="42" height="42" rx="21" transform="matrix(-1 0 0 1 108 342)" fill="#D1F1FD"/>
<rect width="42" height="42" rx="21" transform="matrix(-1 0 0 1 108 416)" fill="white"/>
</svg>
