<svg width="212" height="201" viewBox="0 0 212 201" fill="none" xmlns="http://www.w3.org/2000/svg">
<path fill-rule="evenodd" clip-rule="evenodd" d="M112.442 101C112.442 94.2646 106.982 88.8044 100.246 88.8044C93.5107 88.8044 88.0505 94.2646 88.0505 101C88.0505 107.736 93.5107 113.196 100.246 113.196C106.982 113.196 112.442 107.736 112.442 101ZM100.246 1C45.0176 1 0.246094 45.7715 0.246094 101C0.246094 156.229 45.0176 201 100.246 201C155.475 201 200.246 156.229 200.246 101C200.246 45.7715 155.475 1 100.246 1Z" fill="#BEEBFC"/>
<path d="M34.1255 101C34.1255 64.4829 63.7285 34.8799 100.246 34.8799C136.763 34.8799 166.366 64.4829 166.366 101C166.366 137.517 136.763 167.12 100.246 167.12C63.7285 167.12 34.1255 137.517 34.1255 101Z" fill="white"/>
<g clip-path="url(#clip0_144_683)">
<path d="M189.798 166.096H53.5787C51.881 166.096 50.5049 164.719 50.5049 163.022V64.2285H192.872V163.022C192.872 164.719 191.496 166.096 189.798 166.096Z" fill="#F6F6F6"/>
<path d="M50.5049 64.2285H192.872V74.2835H50.5049V64.2285Z" fill="#D9ECFD"/>
<path d="M192.871 64.2285V163.023C192.871 164.72 191.497 166.097 189.797 166.097H177.631C179.328 166.097 180.705 164.72 180.705 163.023V64.2285H192.871Z" fill="#EAEFF2"/>
<path d="M194.982 66.9353H48.3946C46.6884 66.9353 45.3052 65.552 45.3052 63.8458V54.5553C45.3052 52.849 46.6884 51.4658 48.3946 51.4658H194.982C196.688 51.4658 198.071 52.849 198.071 54.5553V63.8458C198.072 65.552 196.688 66.9353 194.982 66.9353Z" fill="#9FF4AA"/>
<path d="M198.073 54.5543V63.8451C198.073 65.5504 196.689 66.9345 194.983 66.9345H183.166C184.871 66.9345 186.255 65.5504 186.255 63.8451V54.5543C186.255 52.849 184.871 51.4648 183.166 51.4648H194.983C196.689 51.4648 198.073 52.849 198.073 54.5543Z" fill="#84E190"/>
<path d="M98.1289 153.233C77.9533 153.233 61.5391 136.819 61.5391 116.644C61.5391 96.468 77.953 80.0537 98.1289 80.0537C118.305 80.0537 134.719 96.4677 134.719 116.644C134.719 136.82 118.305 153.233 98.1289 153.233ZM98.1289 94.135C85.7177 94.135 75.6203 104.232 75.6203 116.644C75.6203 129.055 85.7177 139.152 98.1289 139.152C110.54 139.152 120.638 129.055 120.638 116.644C120.638 104.232 110.54 94.135 98.1289 94.135Z" fill="#BBECF3"/>
<path d="M134.72 116.641C134.72 136.82 118.303 153.232 98.1288 153.232C89.1813 153.232 80.9734 150.002 74.6089 144.65C79.5146 147.308 85.1267 148.816 91.0874 148.816C110.234 148.816 125.809 133.241 125.809 114.098C125.809 97.2979 113.815 83.2443 97.9385 80.0571C98.0009 80.0537 98.0667 80.0537 98.1291 80.0537C118.303 80.0537 134.72 96.4664 134.72 116.641Z" fill="#A9DFE7"/>
<path d="M125.048 141.399C131.049 134.879 134.719 126.183 134.719 116.644H120.638C120.638 122.303 118.534 127.476 115.074 131.435C118.403 134.752 121.728 138.074 125.048 141.399Z" fill="#9FF4AA"/>
<path d="M134.72 116.642C134.72 126.184 131.049 134.878 125.046 141.401C122.943 139.291 120.837 137.185 118.731 135.082C122.69 129.884 125.214 123.539 125.713 116.642H134.72V116.642Z" fill="#84E190"/>
<path d="M120.638 116.644C120.638 104.232 110.54 94.135 98.1289 94.135V80.0537C118.305 80.0537 134.719 96.4677 134.719 116.644H120.638Z" fill="#1CB2F6"/>
<path d="M134.72 116.641C134.72 96.4664 118.304 80.0537 98.1289 80.0537V80.0964C113.911 83.3559 125.809 97.3667 125.809 114.098C125.809 114.952 125.779 115.8 125.713 116.641H134.72Z" fill="#11A3E6"/>
<path d="M194.982 49.1602H48.3948C45.4203 49.1602 43 51.5805 43 54.555V63.8458C43 66.7548 45.3158 69.1268 48.1999 69.2307V129.487C48.1999 130.76 49.2321 131.792 50.5053 131.792C51.7784 131.792 52.8106 130.76 52.8106 129.487V69.2409H163.228C164.502 69.2409 165.534 68.2087 165.534 66.9355C165.534 65.6624 164.502 64.6302 163.228 64.6302H48.3948C47.9623 64.6302 47.6107 64.2783 47.6107 63.8461V54.555C47.6107 54.1225 47.9626 53.7708 48.3948 53.7708H194.982C195.414 53.7708 195.766 54.1228 195.766 54.555V63.8458C195.766 64.2783 195.414 64.6299 194.982 64.6299H173.471C172.198 64.6299 171.166 65.6621 171.166 66.9352C171.166 68.2084 172.198 69.2406 173.471 69.2406H190.567V163.022C190.567 163.446 190.223 163.791 189.799 163.791H53.579C53.1555 163.791 52.8106 163.446 52.8106 163.022V139.73C52.8106 138.457 51.7784 137.425 50.5053 137.425C49.2321 137.425 48.1999 138.457 48.1999 139.73V163.022C48.1999 165.988 50.6131 168.401 53.579 168.401H119.384V177.642C115.642 178.659 112.88 182.084 112.88 186.143C112.88 191 116.832 194.952 121.689 194.952C126.546 194.952 130.498 191 130.498 186.143C130.498 182.083 127.737 178.658 123.994 177.642V168.401H189.799C192.765 168.401 195.178 165.988 195.178 163.022V69.2307C198.062 69.1265 200.377 66.7542 200.377 63.8458V54.555C200.377 51.5805 197.957 49.1602 194.982 49.1602ZM125.887 186.143C125.887 188.458 124.004 190.341 121.689 190.341C119.374 190.341 117.491 188.458 117.491 186.143C117.491 183.828 119.374 181.945 121.689 181.945C124.004 181.945 125.887 183.828 125.887 186.143Z" fill="#00378C"/>
<path d="M180.398 141.992H164.249C162.976 141.992 161.944 143.024 161.944 144.298C161.944 145.571 162.976 146.603 164.249 146.603H180.398C181.672 146.603 182.703 145.571 182.703 144.298C182.703 143.024 181.672 141.992 180.398 141.992Z" fill="#00378C"/>
<path d="M148.1 154.846H180.398C181.671 154.846 182.703 153.814 182.703 152.541C182.703 151.268 181.671 150.235 180.398 150.235H148.1C146.826 150.235 145.794 151.268 145.794 152.541C145.794 153.814 146.826 154.846 148.1 154.846Z" fill="#00378C"/>
<path d="M148.1 86.0169H151.186C152.459 86.0169 153.491 84.9847 153.491 83.7116C153.491 82.4384 152.459 81.4062 151.186 81.4062H148.1C146.826 81.4062 145.794 82.4384 145.794 83.7116C145.794 84.9847 146.826 86.0169 148.1 86.0169Z" fill="#00378C"/>
<path d="M180.398 86.0169C181.671 86.0169 182.703 84.9847 182.703 83.7116C182.703 82.4384 181.671 81.4062 180.398 81.4062H159.66C158.386 81.4062 157.354 82.4384 157.354 83.7116C157.354 84.9847 158.386 86.0169 159.66 86.0169H180.398Z" fill="#00378C"/>
<path d="M148.1 94.261H180.398C181.671 94.261 182.703 93.2289 182.703 91.9557C182.703 90.6826 181.671 89.6504 180.398 89.6504H148.1C146.826 89.6504 145.794 90.6826 145.794 91.9557C145.794 93.2289 146.826 94.261 148.1 94.261Z" fill="#00378C"/>
<path d="M145.794 130.858C145.794 132.131 146.826 133.163 148.1 133.163H180.398C181.671 133.163 182.703 132.131 182.703 130.858C182.703 129.584 181.671 128.552 180.398 128.552H174.858V108.491C174.858 107.218 173.826 106.186 172.552 106.186C171.279 106.186 170.247 107.218 170.247 108.491V128.552H166.554V121.142C166.554 119.869 165.523 118.837 164.249 118.837C162.976 118.837 161.944 119.869 161.944 121.142V128.552H158.251V115.303C158.251 114.03 157.219 112.998 155.946 112.998C154.672 112.998 153.64 114.03 153.64 115.303V128.552H150.405V105.742C150.405 104.469 149.373 103.437 148.1 103.437C146.826 103.437 145.794 104.469 145.794 105.742V130.858Z" fill="#00378C"/>
<path d="M119.295 89.6912C120.295 90.4787 121.745 90.3059 122.532 89.3057C123.32 88.3055 123.147 86.8559 122.147 86.0684C115.232 80.6254 106.927 77.748 98.1291 77.748C76.6825 77.748 59.2339 95.1963 59.2339 116.643C59.2339 138.09 76.6822 155.538 98.1291 155.538C119.576 155.538 137.025 138.09 137.025 116.643C137.025 108.435 134.485 100.579 129.681 93.9247C128.936 92.8925 127.495 92.6601 126.463 93.4049C125.431 94.1503 125.198 95.5913 125.943 96.6235C129.724 101.861 131.908 107.944 132.332 114.338H122.832C121.735 102.492 112.28 93.0367 100.434 91.94V82.4411C107.329 82.8942 113.809 85.3728 119.295 89.6912ZM63.8445 116.643C63.8445 98.5132 77.9903 83.6279 95.8238 82.4377V91.94C83.2185 93.1071 73.3151 103.738 73.3151 116.643C73.3151 130.326 84.4465 141.457 98.1291 141.457C104.689 141.457 110.659 138.893 115.101 134.721C117.338 136.951 119.572 139.183 121.805 141.418C115.646 147.306 107.302 150.927 98.1291 150.927C79.2248 150.927 63.8445 135.548 63.8445 116.643ZM122.832 118.948H132.335C131.855 126.128 129.157 132.71 124.919 138.012C122.669 135.76 120.417 133.51 118.163 131.262C120.738 127.743 122.409 123.525 122.832 118.948ZM118.333 116.643C118.333 127.783 109.269 136.846 98.1291 136.846C86.9888 136.846 77.9258 127.783 77.9258 116.643C77.9258 105.503 86.9888 96.4397 98.1291 96.4397C109.269 96.4397 118.333 105.503 118.333 116.643Z" fill="#00378C"/>
<path d="M68.4882 150.061L67.034 151.515L65.5798 150.061C64.6795 149.161 63.2198 149.161 62.3198 150.061C61.4195 150.961 61.4195 152.421 62.3198 153.321L65.404 156.405C65.854 156.855 66.4441 157.081 67.034 157.081C67.6239 157.081 68.214 156.856 68.664 156.405L71.7482 153.321C72.6486 152.421 72.6486 150.961 71.7482 150.061C70.8482 149.161 69.3885 149.161 68.4882 150.061Z" fill="#00378C"/>
<path d="M106.423 124.317C106.873 124.768 107.463 124.993 108.053 124.993C108.643 124.993 109.233 124.768 109.683 124.317L112.767 121.233C113.667 120.333 113.667 118.873 112.767 117.973C111.867 117.073 110.407 117.073 109.507 117.973L108.053 119.427L106.599 117.973C105.699 117.073 104.239 117.073 103.339 117.973C102.438 118.873 102.438 120.333 103.339 121.233L106.423 124.317Z" fill="#00378C"/>
<path d="M130.942 88.7236C131.374 89.1558 131.961 89.3989 132.572 89.3989C133.184 89.3989 133.77 89.1561 134.203 88.7236L137.287 85.6394C138.187 84.7391 138.187 83.2793 137.287 82.3793C136.386 81.479 134.927 81.479 134.027 82.3793L132.573 83.8332L131.119 82.3793C130.219 81.4793 128.759 81.479 127.859 82.3793C126.958 83.2796 126.958 84.7394 127.859 85.6397L130.942 88.7236Z" fill="#00378C"/>
</g>
<defs>
<clipPath id="clip0_144_683">
<rect width="157.377" height="157.377" fill="white" transform="translate(43 43.3672)"/>
</clipPath>
</defs>
</svg>
