<svg width="212" height="201" viewBox="0 0 212 201" fill="none" xmlns="http://www.w3.org/2000/svg">
<path fill-rule="evenodd" clip-rule="evenodd" d="M112.474 101C112.474 94.2646 107.014 88.8044 100.278 88.8044C93.5429 88.8044 88.0827 94.2646 88.0827 101C88.0827 107.736 93.5429 113.196 100.278 113.196C107.014 113.196 112.474 107.736 112.474 101ZM100.278 1C45.0499 1 0.27832 45.7715 0.27832 101C0.27832 156.229 45.0499 201 100.278 201C155.507 201 200.278 156.229 200.278 101C200.278 45.7715 155.507 1 100.278 1Z" fill="#BEEBFC"/>
<path d="M34.1577 101C34.1577 64.4829 63.7608 34.8799 100.278 34.8799C136.795 34.8799 166.398 64.4829 166.398 101C166.398 137.517 136.795 167.12 100.278 167.12C63.7608 167.12 34.1577 137.517 34.1577 101Z" fill="white"/>
<g clip-path="url(#clip0_144_682)">
<path d="M188.524 97.7514V175.152L165.235 198.439H117.167C115.473 198.439 114.096 197.062 114.096 195.365V97.7514C114.096 96.0546 115.473 94.6807 117.167 94.6807H185.451C187.144 94.6807 188.524 96.0546 188.524 97.7514Z" fill="#BBECF3"/>
<path d="M129.281 94.6807V154.914C129.281 156.611 127.904 157.988 126.21 157.988H114.096V97.7514C114.096 96.0546 115.473 94.6807 117.167 94.6807H129.281Z" fill="#A9DFE7"/>
<path d="M188.523 175.152V97.7525C188.523 96.0555 187.145 94.6797 185.45 94.6797H175.796C177.493 94.6797 178.869 96.0558 178.869 97.7525V184.806L188.523 175.152Z" fill="#A9DFE7"/>
<path d="M165.236 178.225V198.439L188.524 175.151H168.309C166.615 175.151 165.236 176.527 165.236 178.225Z" fill="#A9DFE7"/>
<path d="M129.282 68.9604V146.359C129.282 148.056 127.903 149.432 126.209 149.432H57.9264C56.2318 149.432 54.8535 148.056 54.8535 146.359V48.7457C54.8535 47.0487 56.2321 45.6729 57.9264 45.6729H105.994L129.282 68.9604Z" fill="#F6F6F6"/>
<path d="M129.281 68.9601V146.359C129.281 148.056 127.903 149.432 126.209 149.432H116.554C118.251 149.432 119.627 148.056 119.627 146.359V59.3057L129.281 68.9601Z" fill="#EAEFF2"/>
<path d="M105.994 65.8872V45.6729L129.282 68.9604H109.067C107.373 68.9604 105.994 67.5842 105.994 65.8872Z" fill="#EAEFF2"/>
<path d="M85.621 109.665C96.2358 109.665 104.841 101.06 104.841 90.4453C104.841 79.8305 96.2358 71.2256 85.621 71.2256C75.0063 71.2256 66.4014 79.8305 66.4014 90.4453C66.4014 101.06 75.0063 109.665 85.621 109.665Z" fill="#9FF4AA"/>
<path d="M104.841 90.4462C104.841 101.061 96.2351 109.666 85.6205 109.666C83.6115 109.666 81.6728 109.359 79.8525 108.787C89.5875 108.326 97.3358 100.293 97.3358 90.4462C97.3358 80.6024 89.5909 72.5694 79.8621 72.1022C81.6824 71.5327 83.6145 71.2256 85.6205 71.2256C96.2351 71.2259 104.841 79.8315 104.841 90.4462Z" fill="#84E190"/>
<path d="M185.45 92.374H164.566C163.292 92.374 162.261 93.4062 162.261 94.6794C162.261 95.9525 163.292 96.9847 164.566 96.9847H185.45C185.873 96.9847 186.218 97.3293 186.218 97.7525V172.846H168.308C165.343 172.846 162.93 175.259 162.93 178.225V196.133H117.168C116.744 196.133 116.4 195.789 116.4 195.366V174.032C116.4 172.759 115.368 171.727 114.095 171.727C112.821 171.727 111.79 172.759 111.79 174.032V195.366C111.79 198.331 114.202 200.744 117.168 200.744H165.236C165.847 200.744 166.433 200.501 166.866 200.069L190.154 176.781C190.586 176.349 190.829 175.763 190.829 175.151V97.7525C190.829 94.7869 188.416 92.374 185.45 92.374ZM168.309 177.457H182.957L167.541 192.873V178.224C167.541 177.801 167.885 177.457 168.309 177.457Z" fill="#00378C"/>
<path d="M111.79 163.788C111.79 165.061 112.822 166.094 114.096 166.094C115.369 166.094 116.401 165.061 116.401 163.788V151.737H126.208C129.174 151.737 131.587 149.324 131.587 146.359V122.389H140.212C141.486 122.389 142.517 121.357 142.517 120.084C142.517 118.81 141.486 117.778 140.212 117.778H131.587V114.214H157.203C158.477 114.214 159.509 113.181 159.509 111.908C159.509 110.635 158.477 109.603 157.203 109.603H131.587V96.9861H154.322C155.596 96.9861 156.628 95.9539 156.628 94.6807C156.628 93.4076 155.596 92.3754 154.322 92.3754H131.587V68.96C131.587 68.3487 131.344 67.7622 130.911 67.33L107.624 44.0425C107.192 43.61 106.605 43.3672 105.994 43.3672H57.9263C54.9608 43.3672 52.5479 45.7798 52.5479 48.7457V146.359C52.5479 149.325 54.9608 151.738 57.9263 151.738H111.79V163.788ZM108.299 51.2379L123.715 66.6544H109.067C108.643 66.6544 108.299 66.3098 108.299 65.8866V51.2379ZM57.1582 146.359V48.7457C57.1582 48.3224 57.5028 47.9778 57.926 47.9778H103.688V65.8869C103.688 68.8524 106.101 71.2654 109.067 71.2654H126.976V146.359C126.976 146.782 126.632 147.127 126.208 147.127H57.9263C57.5031 147.127 57.1582 146.782 57.1582 146.359Z" fill="#00378C"/>
<path d="M154.685 170.658H125.644C124.37 170.658 123.338 171.69 123.338 172.964C123.338 174.237 124.37 175.269 125.644 175.269H154.685C155.959 175.269 156.991 174.237 156.991 172.964C156.991 171.69 155.958 170.658 154.685 170.658Z" fill="#00378C"/>
<path d="M154.685 179.436H147.039C145.766 179.436 144.734 180.468 144.734 181.741C144.734 183.014 145.766 184.046 147.039 184.046H154.685C155.959 184.046 156.991 183.014 156.991 181.741C156.991 180.468 155.958 179.436 154.685 179.436Z" fill="#00378C"/>
<path d="M125.644 179.436C124.37 179.436 123.338 180.468 123.338 181.741C123.338 183.014 124.37 184.046 125.644 184.046H138.164C139.438 184.046 140.469 183.014 140.469 181.741C140.469 180.468 139.438 179.436 138.164 179.436H125.644Z" fill="#00378C"/>
<path d="M85.6214 77.1025C84.348 77.1025 83.3161 78.1347 83.3161 79.4079V80.1908C80.2872 80.7001 77.9702 83.3334 77.9702 86.5046C77.9702 90.0391 80.8454 92.9143 84.3803 92.9143H86.8629C87.8552 92.9143 88.662 93.7215 88.662 94.7137C88.662 95.7059 87.8552 96.5128 86.8629 96.5128H84.3803C83.6552 96.5128 83.0038 96.0812 82.7213 95.413C82.2255 94.2404 80.8725 93.692 79.7001 94.1878C78.5278 94.6839 77.9788 96.0367 78.4752 97.2093C79.3402 99.2543 81.1771 100.674 83.3164 101.032V101.484C83.3164 102.757 84.3483 103.789 85.6218 103.789C86.8952 103.789 87.9271 102.757 87.9271 101.484V101.028C90.9557 100.519 93.273 97.8849 93.273 94.7137C93.273 91.1792 90.3978 88.3037 86.8632 88.3037H84.3806C83.3884 88.3037 82.5812 87.4968 82.5812 86.5046C82.5812 85.5124 83.3884 84.7055 84.3806 84.7055H86.8632C87.462 84.7055 88.0202 85.0024 88.3562 85.5001C89.0687 86.555 90.5017 86.8329 91.5569 86.1201C92.6121 85.4076 92.8894 83.9746 92.1769 82.9193C91.1837 81.4492 89.6435 80.4742 87.9271 80.1858V79.4079C87.9268 78.1347 86.8949 77.1025 85.6214 77.1025Z" fill="#00378C"/>
<path d="M85.6212 68.9209C73.7524 68.9209 64.0962 78.5772 64.0962 90.4459C64.0962 94.436 65.1991 98.3351 67.2855 101.721C67.9535 102.805 69.3735 103.142 70.4574 102.475C71.5412 101.807 71.8784 100.386 71.2104 99.3027C69.5724 96.6442 68.7065 93.5815 68.7065 90.4459C68.7065 81.1192 76.2945 73.5316 85.6209 73.5316C94.9473 73.5316 102.535 81.1195 102.535 90.4459C102.535 99.7723 94.9473 107.36 85.6209 107.36C82.8726 107.36 80.2464 106.718 77.816 105.451C76.6864 104.862 75.2949 105.3 74.7059 106.429C74.1173 107.558 74.5553 108.95 75.6843 109.539C78.7363 111.13 82.1718 111.971 85.6209 111.971C97.4896 111.971 107.146 102.315 107.146 90.4459C107.146 78.5772 97.4899 68.9209 85.6212 68.9209Z" fill="#00378C"/>
<path d="M114.359 88.1367C114.357 88.1367 114.354 88.1367 114.352 88.1367C113.082 88.1367 112.051 89.1643 112.047 90.4353C112.043 91.7084 113.072 92.7437 114.345 92.7474L117.727 92.7575H117.734C119.003 92.7575 120.035 91.73 120.039 90.459C120.043 89.1858 119.013 88.1506 117.74 88.1469L114.359 88.1367Z" fill="#00378C"/>
<path d="M112.913 84.2976C113.316 84.2976 113.725 84.1919 114.096 83.9697L117.029 82.213C118.121 81.5589 118.476 80.1431 117.822 79.0507C117.167 77.9583 115.751 77.6036 114.66 78.2577L111.727 80.0143C110.634 80.6684 110.279 82.0842 110.933 83.1766C111.366 83.8977 112.129 84.2976 112.913 84.2976Z" fill="#00378C"/>
<path d="M114.592 102.629C114.966 102.856 115.379 102.964 115.786 102.964C116.565 102.964 117.325 102.57 117.759 101.855C118.42 100.767 118.073 99.3488 116.985 98.6883L114.061 96.9141C112.974 96.2535 111.556 96.5999 110.894 97.6887C110.234 98.7771 110.581 100.195 111.669 100.856L114.592 102.629Z" fill="#00378C"/>
<path d="M66.4015 126.334H80.9706C82.244 126.334 83.2759 125.302 83.2759 124.029C83.2759 122.756 82.244 121.724 80.9706 121.724H66.4015C65.1281 121.724 64.0962 122.756 64.0962 124.029C64.0962 125.302 65.1281 126.334 66.4015 126.334Z" fill="#00378C"/>
<path d="M97.9618 129.898H66.4015C65.1281 129.898 64.0962 130.931 64.0962 132.204C64.0962 133.477 65.1281 134.509 66.4015 134.509H97.9618C99.2352 134.509 100.267 133.477 100.267 132.204C100.267 130.931 99.2349 129.898 97.9618 129.898Z" fill="#00378C"/>
<path d="M68.342 63.3594C68.9318 63.3594 69.522 63.1344 69.972 62.6841L73.469 59.1873C74.3696 58.287 74.3696 56.8276 73.4693 55.9273C72.5687 55.027 71.109 55.027 70.2093 55.9273L68.3423 57.794L66.4753 55.9273C65.5753 55.0267 64.1155 55.027 63.2152 55.9273C62.3149 56.8276 62.3149 58.2873 63.2155 59.1873L66.7126 62.6841C67.162 63.1344 67.7521 63.3594 68.342 63.3594Z" fill="#00378C"/>
<path d="M167.377 131.803C166.104 131.803 165.072 132.835 165.072 134.108V156.54H160.499V148.1C160.499 146.827 159.467 145.795 158.194 145.795C156.92 145.795 155.889 146.827 155.889 148.1V156.54H151.316V141.642C151.316 140.369 150.284 139.337 149.01 139.337C147.737 139.337 146.705 140.369 146.705 141.642V156.54H142.638V131.067C142.638 129.794 141.607 128.762 140.333 128.762C139.06 128.762 138.028 129.794 138.028 131.067V158.846C138.028 160.119 139.06 161.151 140.333 161.151H176.055C177.329 161.151 178.361 160.119 178.361 158.846C178.361 157.572 177.329 156.54 176.055 156.54H169.683V134.108C169.683 132.835 168.651 131.803 167.377 131.803Z" fill="#00378C"/>
<path d="M103.988 184.336C99.1986 185.145 94.3798 184.04 90.4202 181.224C86.4612 178.409 83.8356 174.22 83.0268 169.43C82.7594 167.847 82.7029 166.265 82.8495 164.7C83.2943 165.232 83.9453 165.528 84.6157 165.528C84.9993 165.528 85.3881 165.432 85.7459 165.231C86.8549 164.605 87.2471 163.199 86.6219 162.09L84.1054 157.628C83.8048 157.095 83.3053 156.704 82.7164 156.539C82.1278 156.376 81.4976 156.452 80.965 156.752L76.5022 159.269C75.3931 159.894 75.0009 161.3 75.6261 162.409C76.1757 163.384 77.3293 163.804 78.3532 163.467C78.0633 165.691 78.0996 167.944 78.4801 170.198C79.4939 176.202 82.7852 181.453 87.7479 184.982C91.65 187.757 96.2183 189.206 100.911 189.206C102.187 189.206 103.472 189.099 104.755 188.883C106.011 188.671 106.857 187.481 106.644 186.226C106.433 184.97 105.244 184.124 103.988 184.336Z" fill="#00378C"/>
<path d="M139.388 59.7763C144.178 58.9673 148.997 60.0726 152.956 62.8882C156.915 65.7035 159.541 69.8921 160.349 74.6823C160.616 76.2637 160.673 77.8443 160.527 79.4076C159.828 78.5734 158.613 78.3275 157.631 78.8817C156.522 79.5069 156.129 80.9128 156.755 82.0218L159.271 86.4843C159.572 87.017 160.071 87.4083 160.66 87.5727C160.864 87.6293 161.072 87.6573 161.279 87.6573C161.673 87.6573 162.063 87.5565 162.412 87.36L166.875 84.8435C167.984 84.2183 168.376 82.8124 167.751 81.7031C167.201 80.7281 166.047 80.3079 165.024 80.6454C165.313 78.4215 165.277 76.1684 164.897 73.9144C163.883 67.9098 160.592 62.6595 155.629 59.1302C150.666 55.6012 144.624 54.2168 138.622 55.2296C137.366 55.4414 136.52 56.6312 136.732 57.8866C136.943 59.1419 138.133 59.9881 139.388 59.7763Z" fill="#00378C"/>
</g>
<defs>
<clipPath id="clip0_144_682">
<rect width="157.377" height="157.377" fill="white" transform="translate(43 43.3672)"/>
</clipPath>
</defs>
</svg>
