<?xml version="1.0" encoding="utf-8"?>
<!-- Generator: Adobe Illustrator 27.4.1, SVG Export Plug-In . SVG Version: 6.00 Build 0)  -->
<svg version="1.1" id="Layer_1" xmlns="http://www.w3.org/2000/svg" xmlns:xlink="http://www.w3.org/1999/xlink" x="0px" y="0px"
	 viewBox="0 0 436.2 61.7" style="enable-background:new 0 0 436.2 61.7;" xml:space="preserve">
<style type="text/css">
	.st0{fill-rule:evenodd;clip-rule:evenodd;fill:#00358C;}
	.st1{fill:#00358C;}
</style>
<g id="SvgjsG7068">
	<path class="st0" d="M6.8,61V0H0v61H6.8z M40.5,0h-6.8v61h13.5V0H40.5L40.5,0z M60.7,61V0H54v61H60.7z M101.2,61V0h-6.8v61H101.2z
		 M81,0h-6.8v61h13.5V0H81L81,0z M20.2,0h-6.8v61H27V0H20.2L20.2,0z"/>
</g>
<g id="SvgjsG7069">
	<path class="st1" d="M152.9,16.1h13.6v44.7h-13.6v-4.5c-0.6,1.5-4.6,5.3-11.5,5.3c-10.2,0-22-7.3-22-23.3s11.8-23,22-23
		c6.9,0,10.9,4,11.5,4.9C152.9,20.3,152.9,16.1,152.9,16.1z M143.4,49.8c5.6,0,10.1-3.9,10.1-11.3s-4.6-11.1-10.1-11.1
		s-10.8,4-10.8,11.1S137.6,49.8,143.4,49.8z M188.9,0v60.8h-13.6V0H188.9z M211.3,0v60.8h-13.6V0H211.3z M248.8,15.4
		c1.2,0,2.4,0,3.5,0.3v13c-1-0.3-2.2-0.3-3.1-0.3c-8.3,0-14.9,5.9-15.6,14.2v18.2H220V16.1h13.6V27
		C235.7,20.3,240.9,15.4,248.8,15.4z M281.5,15.3c10.1,0,24.3,7.7,21.5,27.9h-31.2c1.5,4.7,5.6,7,11,7s7.2-1.2,10.3-2.5l7.5,7.2
		c-4,3.9-9.3,6.7-18.3,6.7c-11.1,0-24.3-7.7-24.3-23S271.3,15.4,281.5,15.3L281.5,15.3L281.5,15.3z M281.5,27
		c-3.9,0-7.8,2.2-9.5,6.7h19C289.5,29.2,285.3,27,281.5,27L281.5,27z M332.5,49.5c2.4,0,4.1-0.3,6-0.9v11.3c-1.9,0.9-5,1.5-9.5,1.5
		c-7.5,0-13.8-2.5-13.8-16.3V27.3h-6.3V16.1h6.3V5.6h13.6v10.5h9.5v11.2h-9.5v17.8C328.8,47.1,329.3,49.5,332.5,49.5z M377.9,16.1
		h13.6v44.7h-13.6v-4.5c-0.6,1.5-4.6,5.3-11.5,5.3c-10.2,0-22-7.3-22-23.3s11.8-23,22-23c6.9,0,10.9,4,11.5,4.9
		C377.9,20.3,377.9,16.1,377.9,16.1z M368.3,49.8c5.6,0,10.1-3.9,10.1-11.3s-4.6-11.1-10.1-11.1s-10.8,4-10.8,11.1
		S362.5,49.8,368.3,49.8z M413.9,0v11.4h-13.6V0H413.9z M413.9,16.1v44.7h-13.6V16.1C400.3,16.1,413.9,16.1,413.9,16.1z M436.2,0
		v60.8h-13.6V0H436.2z"/>
</g>
</svg>
